<mxfile host="Electron" modified="2023-12-07T11:40:21.493Z" agent="Mozilla/5.0 (X11; Linux x86_64) AppleWebKit/537.36 (KHTML, like Gecko) draw.io/22.1.2 Chrome/114.0.5735.289 Electron/25.9.4 Safari/537.36" etag="LaSy4dMIrdSoqK4tTgWI" version="22.1.2" type="device">
  <diagram name="Page-1" id="NEyev_pVZhtqKXSFuoXa">
    <mxGraphModel dx="1434" dy="887" grid="1" gridSize="10" guides="1" tooltips="1" connect="1" arrows="1" fold="1" page="1" pageScale="1" pageWidth="1169" pageHeight="827" math="0" shadow="0">
      <root>
        <mxCell id="0" />
        <mxCell id="1" parent="0" />
        <mxCell id="wzm1nlo6ZQ8m1-DIEH7c-19" value="&lt;br&gt;" style="rounded=0;whiteSpace=wrap;html=1;" parent="1" vertex="1">
          <mxGeometry x="200" y="240" width="240" height="260" as="geometry" />
        </mxCell>
        <mxCell id="wzm1nlo6ZQ8m1-DIEH7c-18" value="" style="rounded=0;whiteSpace=wrap;html=1;" parent="1" vertex="1">
          <mxGeometry x="600" y="240" width="200" height="260" as="geometry" />
        </mxCell>
        <mxCell id="wzm1nlo6ZQ8m1-DIEH7c-2" value="Client&lt;br&gt;Web Browser" style="whiteSpace=wrap;html=1;" parent="1" vertex="1">
          <mxGeometry x="240" y="280" width="160" height="80" as="geometry" />
        </mxCell>
        <mxCell id="wzm1nlo6ZQ8m1-DIEH7c-3" value="BusMate&lt;br&gt;Web Server" style="whiteSpace=wrap;html=1;" parent="1" vertex="1">
          <mxGeometry x="640" y="280" width="120" height="80" as="geometry" />
        </mxCell>
        <mxCell id="wzm1nlo6ZQ8m1-DIEH7c-4" value="" style="endArrow=classic;startArrow=classic;html=1;rounded=0;" parent="1" source="wzm1nlo6ZQ8m1-DIEH7c-2" target="wzm1nlo6ZQ8m1-DIEH7c-3" edge="1">
          <mxGeometry width="50" height="50" relative="1" as="geometry">
            <mxPoint x="560" y="480" as="sourcePoint" />
            <mxPoint x="610" y="430" as="targetPoint" />
          </mxGeometry>
        </mxCell>
        <mxCell id="wzm1nlo6ZQ8m1-DIEH7c-5" value="HTTPS Requests" style="edgeLabel;html=1;align=center;verticalAlign=middle;resizable=0;points=[];" parent="wzm1nlo6ZQ8m1-DIEH7c-4" vertex="1" connectable="0">
          <mxGeometry x="0.0889" y="2" relative="1" as="geometry">
            <mxPoint x="-10" y="2" as="offset" />
          </mxGeometry>
        </mxCell>
        <mxCell id="wzm1nlo6ZQ8m1-DIEH7c-6" value="BusMate&lt;br&gt;Database Server" style="rounded=0;whiteSpace=wrap;html=1;" parent="1" vertex="1">
          <mxGeometry x="640" y="400" width="120" height="40" as="geometry" />
        </mxCell>
        <mxCell id="wzm1nlo6ZQ8m1-DIEH7c-7" value="Google Maps API" style="rounded=0;whiteSpace=wrap;html=1;" parent="1" vertex="1">
          <mxGeometry x="950" y="250" width="120" height="40" as="geometry" />
        </mxCell>
        <mxCell id="wzm1nlo6ZQ8m1-DIEH7c-8" value="GPS Service" style="rounded=0;whiteSpace=wrap;html=1;" parent="1" vertex="1">
          <mxGeometry x="240" y="400" width="160" height="40" as="geometry" />
        </mxCell>
        <mxCell id="wzm1nlo6ZQ8m1-DIEH7c-10" value="" style="endArrow=classic;startArrow=classic;html=1;rounded=0;" parent="1" source="wzm1nlo6ZQ8m1-DIEH7c-3" target="wzm1nlo6ZQ8m1-DIEH7c-6" edge="1">
          <mxGeometry width="50" height="50" relative="1" as="geometry">
            <mxPoint x="685" y="480" as="sourcePoint" />
            <mxPoint x="735" y="430" as="targetPoint" />
          </mxGeometry>
        </mxCell>
        <mxCell id="wzm1nlo6ZQ8m1-DIEH7c-13" value="SQL Query" style="edgeLabel;html=1;align=center;verticalAlign=middle;resizable=0;points=[];" parent="wzm1nlo6ZQ8m1-DIEH7c-10" vertex="1" connectable="0">
          <mxGeometry x="0.34" y="-1" relative="1" as="geometry">
            <mxPoint x="1" y="-7" as="offset" />
          </mxGeometry>
        </mxCell>
        <mxCell id="wzm1nlo6ZQ8m1-DIEH7c-11" value="" style="endArrow=classic;startArrow=classic;html=1;rounded=0;" parent="1" source="wzm1nlo6ZQ8m1-DIEH7c-7" target="wzm1nlo6ZQ8m1-DIEH7c-3" edge="1">
          <mxGeometry width="50" height="50" relative="1" as="geometry">
            <mxPoint x="685" y="480" as="sourcePoint" />
            <mxPoint x="735" y="430" as="targetPoint" />
          </mxGeometry>
        </mxCell>
        <mxCell id="wzm1nlo6ZQ8m1-DIEH7c-12" value="HTTPS Requests" style="edgeLabel;html=1;align=center;verticalAlign=middle;resizable=0;points=[];" parent="wzm1nlo6ZQ8m1-DIEH7c-11" vertex="1" connectable="0">
          <mxGeometry x="-0.1667" relative="1" as="geometry">
            <mxPoint x="-11" as="offset" />
          </mxGeometry>
        </mxCell>
        <mxCell id="wzm1nlo6ZQ8m1-DIEH7c-16" value="" style="endArrow=classic;startArrow=classic;html=1;rounded=0;" parent="1" source="wzm1nlo6ZQ8m1-DIEH7c-8" target="wzm1nlo6ZQ8m1-DIEH7c-2" edge="1">
          <mxGeometry width="50" height="50" relative="1" as="geometry">
            <mxPoint x="560" y="480" as="sourcePoint" />
            <mxPoint x="610" y="430" as="targetPoint" />
          </mxGeometry>
        </mxCell>
        <mxCell id="wzm1nlo6ZQ8m1-DIEH7c-21" value="Client-side" style="text;html=1;strokeColor=none;fillColor=none;align=center;verticalAlign=middle;whiteSpace=wrap;rounded=0;" parent="1" vertex="1">
          <mxGeometry x="290" y="460" width="60" height="30" as="geometry" />
        </mxCell>
        <mxCell id="wzm1nlo6ZQ8m1-DIEH7c-22" value="Server-side" style="text;html=1;strokeColor=none;fillColor=none;align=center;verticalAlign=middle;whiteSpace=wrap;rounded=0;" parent="1" vertex="1">
          <mxGeometry x="660" y="460" width="80" height="30" as="geometry" />
        </mxCell>
        <mxCell id="EjBV1vGqAZuEHy1eZf8m-1" value="Online Payment API" style="rounded=0;whiteSpace=wrap;html=1;" vertex="1" parent="1">
          <mxGeometry x="950" y="340" width="120" height="40" as="geometry" />
        </mxCell>
        <mxCell id="EjBV1vGqAZuEHy1eZf8m-2" value="" style="endArrow=classic;startArrow=classic;html=1;rounded=0;" edge="1" parent="1" source="EjBV1vGqAZuEHy1eZf8m-1" target="wzm1nlo6ZQ8m1-DIEH7c-3">
          <mxGeometry width="50" height="50" relative="1" as="geometry">
            <mxPoint x="960" y="397" as="sourcePoint" />
            <mxPoint x="770" y="400" as="targetPoint" />
          </mxGeometry>
        </mxCell>
        <mxCell id="EjBV1vGqAZuEHy1eZf8m-3" value="HTTPS Requests" style="edgeLabel;html=1;align=center;verticalAlign=middle;resizable=0;points=[];" vertex="1" connectable="0" parent="EjBV1vGqAZuEHy1eZf8m-2">
          <mxGeometry x="-0.1667" relative="1" as="geometry">
            <mxPoint x="-11" as="offset" />
          </mxGeometry>
        </mxCell>
      </root>
    </mxGraphModel>
  </diagram>
</mxfile>
